# xmcd
#
# Track frame offsets: 
#        150
#        19198
#        55688
#        76455
#        92679
#        111814
#        127353
#        155625
#        168660
#        201341
#        214772
#
# Disc length: 3104 seconds
#
# Revision: 0
# Processed by: cddbd v1.4PL0 Copyright (c) Steve Scherf et al.
# Submitted via: ExactAudioCopy v0.95a3
#
DISCID=9c0c1e0b
DTITLE=Lightning Red - Texas Thunder Blues
DYEAR=1998
DGENRE=
TTITLE0=Big Time
TTITLE1=Five Long Years
TTITLE2=Scratch My Back
TTITLE3=Black Cat Bone
TTITLE4=Riders On The Storm
TTITLE5=Endless Boogie
TTITLE6=Hoochie Coochie Man
TTITLE7=Goin' On
TTITLE8=Lost My Baby
TTITLE9=Rollin' and Tumblin
TTITLE10=Goin' Down
EXTD=
EXTT0=
EXTT1=
EXTT2=
EXTT3=
EXTT4=
EXTT5=
EXTT6=
EXTT7=
EXTT8=
EXTT9=
EXTT10=
PLAYORDER=
